<svg width="28" height="28" viewBox="0 0 28 28" fill="none" xmlns="http://www.w3.org/2000/svg">
<path d="M22.8829 0H4.97455C2.23357 0 0 2.245 0 5V17.5C0 20.255 2.23357 22.5 4.97455 22.5H8.56121L13.1925 27.65C13.3816 27.86 13.6452 27.98 13.9288 27.98C14.2123 27.98 14.476 27.86 14.665 27.65L19.2963 22.5H22.8829C25.6239 22.5 27.8575 20.255 27.8575 17.5V5C27.8575 2.245 25.6239 0 22.8829 0ZM10.8943 18.66V11.245C10.8943 10.695 11.337 10.245 11.8892 10.245H15.9733C16.5205 10.245 16.9682 10.695 16.9682 11.245V18.66C16.9682 19.215 16.5205 19.66 15.9733 19.66H11.8892C11.337 19.66 10.8943 19.215 10.8943 18.66ZM13.9288 9.475C12.2523 9.475 10.8943 8.105 10.8943 6.42C10.8943 4.735 12.2523 3.37 13.9288 3.37C15.6052 3.37 16.9682 4.735 16.9682 6.42C16.9682 8.105 15.6052 9.475 13.9288 9.475Z" fill="white"/>
</svg>
