<svg width="60" height="17" viewBox="0 0 60 17" fill="none" xmlns="http://www.w3.org/2000/svg">
<path d="M0.8 16L5.96 1.2H8.96L14.14 16H11.68L10.54 12.68H4.4L3.26 16H0.8ZM5.1 10.6H9.84L7.48 3.7L5.1 10.6ZM22.2014 16.2C21.5214 16.2 20.9547 16.0933 20.5014 15.88C20.0614 15.6667 19.7081 15.42 19.4414 15.14C19.1881 14.86 18.9947 14.62 18.8614 14.42H18.7414V16H16.4614V0.799999H18.7414V6.98H18.8614C18.9947 6.78 19.1881 6.54 19.4414 6.26C19.7081 5.98 20.0614 5.73333 20.5014 5.52C20.9547 5.30667 21.5214 5.2 22.2014 5.2C22.9881 5.2 23.6814 5.36 24.2814 5.68C24.8814 5.98667 25.3747 6.40667 25.7614 6.94C26.1614 7.46 26.4547 8.04667 26.6414 8.7C26.8414 9.35333 26.9414 10.02 26.9414 10.7C26.9414 11.38 26.8414 12.0467 26.6414 12.7C26.4547 13.3533 26.1614 13.9467 25.7614 14.48C25.3747 15 24.8814 15.42 24.2814 15.74C23.6814 16.0467 22.9881 16.2 22.2014 16.2ZM21.6814 14.3C22.3481 14.3 22.8947 14.1267 23.3214 13.78C23.7614 13.42 24.0881 12.9667 24.3014 12.42C24.5281 11.8733 24.6414 11.3 24.6414 10.7C24.6414 10.1 24.5281 9.52667 24.3014 8.98C24.0881 8.43333 23.7614 7.98667 23.3214 7.64C22.8947 7.28 22.3481 7.1 21.6814 7.1C21.0281 7.1 20.4814 7.28 20.0414 7.64C19.6147 7.98667 19.2881 8.43333 19.0614 8.98C18.8481 9.52667 18.7414 10.1 18.7414 10.7C18.7414 11.3 18.8481 11.8733 19.0614 12.42C19.2881 12.9667 19.6147 13.42 20.0414 13.78C20.4814 14.1267 21.0281 14.3 21.6814 14.3ZM34.4683 16.2C33.3083 16.2 32.3283 15.94 31.5283 15.42C30.7416 14.9 30.1416 14.22 29.7283 13.38C29.3283 12.54 29.1283 11.6467 29.1283 10.7C29.1283 9.75333 29.3283 8.86 29.7283 8.02C30.1416 7.18 30.7416 6.5 31.5283 5.98C32.3283 5.46 33.3083 5.2 34.4683 5.2C35.6149 5.2 36.5816 5.46 37.3683 5.98C38.1683 6.5 38.7683 7.18 39.1683 8.02C39.5816 8.86 39.7883 9.75333 39.7883 10.7C39.7883 11.6467 39.5816 12.54 39.1683 13.38C38.7683 14.22 38.1683 14.9 37.3683 15.42C36.5816 15.94 35.6149 16.2 34.4683 16.2ZM34.4683 14.26C35.1216 14.26 35.6683 14.0933 36.1083 13.76C36.5616 13.4267 36.9016 12.9867 37.1283 12.44C37.3683 11.8933 37.4883 11.3133 37.4883 10.7C37.4883 10.0733 37.3683 9.49333 37.1283 8.96C36.9016 8.41333 36.5616 7.97333 36.1083 7.64C35.6683 7.30667 35.1216 7.14 34.4683 7.14C33.8149 7.14 33.2616 7.30667 32.8083 7.64C32.3549 7.97333 32.0149 8.41333 31.7883 8.96C31.5616 9.49333 31.4483 10.0733 31.4483 10.7C31.4483 11.3133 31.5616 11.8933 31.7883 12.44C32.0149 12.9867 32.3549 13.4267 32.8083 13.76C33.2616 14.0933 33.8149 14.26 34.4683 14.26ZM45.6575 16.2C44.5908 16.2 43.7575 15.8667 43.1575 15.2C42.5575 14.5333 42.2575 13.6467 42.2575 12.54V5.4H44.5375V12.26C44.5375 12.9 44.7042 13.4 45.0375 13.76C45.3842 14.1067 45.8508 14.28 46.4375 14.28C47.0108 14.28 47.4708 14.1333 47.8175 13.84C48.1642 13.5467 48.4108 13.1733 48.5575 12.72C48.7175 12.2533 48.7975 11.7733 48.7975 11.28V5.4H51.0775V16H48.7975V14.48H48.6775C48.5708 14.68 48.3975 14.92 48.1575 15.2C47.9308 15.4667 47.6108 15.7 47.1975 15.9C46.7975 16.1 46.2842 16.2 45.6575 16.2ZM58.3623 16.2C57.5223 16.2 56.849 16.0467 56.3423 15.74C55.8357 15.4333 55.469 15.0267 55.2423 14.52C55.029 14 54.9223 13.44 54.9223 12.84V7.24H53.0623V5.4H54.9223V2.76H57.2023V5.4H59.6823V7.24H57.2023V12.8C57.2023 13.8 57.7557 14.3 58.8623 14.3C59.1423 14.3 59.4023 14.28 59.6423 14.24C59.8823 14.2 60.0023 14.18 60.0023 14.18V16.04C60.0023 16.04 59.8357 16.0667 59.5023 16.12C59.1823 16.1733 58.8023 16.2 58.3623 16.2Z" fill="white"/>
</svg>
