<svg width="14" height="14" viewBox="0 0 14 14" fill="none" xmlns="http://www.w3.org/2000/svg">
<path fill-rule="evenodd" clip-rule="evenodd" d="M5.11662 0.895915C4.95251 1.03577 4.87044 1.10571 4.7828 1.16445C4.58191 1.2991 4.35629 1.39255 4.11902 1.43939C4.01552 1.45983 3.90804 1.4684 3.6931 1.48556C3.15304 1.52866 2.883 1.5502 2.65772 1.62978C2.13665 1.81383 1.72679 2.22369 1.54274 2.74476C1.46317 2.97004 1.44162 3.24007 1.39852 3.78013C1.38137 3.99508 1.3728 4.10255 1.35236 4.20606C1.30551 4.44333 1.21206 4.66894 1.07741 4.86984C1.01868 4.95748 0.948743 5.03954 0.808879 5.20365C0.457474 5.61602 0.281765 5.82217 0.178737 6.03776C-0.059579 6.53639 -0.059579 7.11595 0.178737 7.61458C0.281771 7.83016 0.457474 8.03631 0.808879 8.44868C0.948723 8.61278 1.01868 8.69486 1.07741 8.78247C1.21206 8.98336 1.30551 9.20899 1.35236 9.44627C1.3728 9.54979 1.38137 9.65728 1.39852 9.87219C1.44162 10.4123 1.46317 10.6823 1.54274 10.9076C1.72679 11.4287 2.13665 11.8385 2.65772 12.0226C2.883 12.1021 3.15304 12.1237 3.6931 12.1668C3.90804 12.1839 4.01552 12.1925 4.11902 12.213C4.35629 12.2598 4.58191 12.3533 4.7828 12.4879C4.87044 12.5466 4.9525 12.6166 5.11662 12.7564C5.52899 13.1078 5.73514 13.2835 5.95072 13.3866C6.44935 13.6249 7.02891 13.6249 7.52754 13.3866C7.74313 13.2835 7.94928 13.1078 8.36164 12.7564C8.52574 12.6166 8.60782 12.5466 8.69543 12.4879C8.89633 12.3533 9.12195 12.2598 9.35924 12.213C9.46275 12.1925 9.57024 12.1839 9.78515 12.1668C10.3252 12.1237 10.5953 12.1021 10.8205 12.0226C11.3416 11.8385 11.7515 11.4287 11.9355 10.9076C12.0151 10.6823 12.0366 10.4123 12.0798 9.87219C12.0969 9.65728 12.1055 9.54979 12.1259 9.44627C12.1728 9.20899 12.2662 8.98336 12.4009 8.78247C12.4596 8.69486 12.5295 8.61278 12.6694 8.44868C13.0208 8.03631 13.1965 7.83016 13.2995 7.61458C13.5378 7.11595 13.5378 6.53639 13.2995 6.03776C13.1965 5.82217 13.0208 5.61602 12.6694 5.20365C12.5295 5.03954 12.4596 4.95748 12.4009 4.86984C12.2662 4.66894 12.1728 4.44333 12.1259 4.20606C12.1055 4.10255 12.0969 3.99508 12.0798 3.78013C12.0366 3.24007 12.0151 2.97004 11.9355 2.74476C11.7515 2.22369 11.3416 1.81383 10.8205 1.62978C10.5953 1.5502 10.3252 1.52866 9.78515 1.48556C9.57024 1.4684 9.46275 1.45983 9.35924 1.43939C9.12195 1.39255 8.89633 1.2991 8.69543 1.16445C8.60782 1.10571 8.52574 1.03578 8.36164 0.895915C7.94928 0.54451 7.74313 0.368808 7.52754 0.265773C7.02891 0.0274572 6.44935 0.0274572 5.95072 0.265773C5.73514 0.368801 5.52899 0.54451 5.11662 0.895915ZM9.68649 5.38611C9.90066 5.17191 9.90066 4.82465 9.68649 4.61045C9.47232 4.39626 9.12499 4.39626 8.91082 4.61045L5.6422 7.87909L4.56742 6.80433C4.35323 6.59016 4.00596 6.59016 3.79177 6.80433C3.57758 7.0185 3.57758 7.36577 3.79177 7.58001L5.25435 9.0426C5.46854 9.25677 5.8158 9.25677 6.03004 9.0426L9.68649 5.38611Z" fill="white"/>
</svg>
