<svg width="10" height="10" viewBox="0 0 10 10" fill="none" xmlns="http://www.w3.org/2000/svg">
<path fill-rule="evenodd" clip-rule="evenodd" d="M3.7962 0.600136C3.67444 0.703901 3.61356 0.755791 3.54853 0.799371C3.39948 0.899271 3.23209 0.968606 3.05605 1.00336C2.97926 1.01853 2.89952 1.02489 2.74004 1.03761C2.33935 1.06959 2.139 1.08558 1.97186 1.14462C1.58526 1.28117 1.28117 1.58526 1.14462 1.97186C1.08558 2.139 1.06959 2.33935 1.03761 2.74004C1.02489 2.89952 1.01853 2.97926 1.00336 3.05605C0.968606 3.23209 0.899271 3.39948 0.799371 3.54853C0.755791 3.61356 0.703906 3.67444 0.600136 3.7962C0.339416 4.10215 0.209051 4.2551 0.132611 4.41505C-0.0442038 4.785 -0.0442038 5.215 0.132611 5.58495C0.209056 5.7449 0.339416 5.89785 0.600136 6.2038C0.703891 6.32555 0.755791 6.38645 0.799371 6.45145C0.899271 6.6005 0.968606 6.7679 1.00336 6.94395C1.01853 7.02075 1.02489 7.1005 1.03761 7.25995C1.06959 7.66065 1.08558 7.861 1.14462 8.02815C1.28117 8.41475 1.58526 8.71885 1.97186 8.8554C2.139 8.9144 2.33935 8.9304 2.74004 8.9624C2.89952 8.9751 2.97926 8.9815 3.05605 8.99665C3.23209 9.0314 3.39948 9.10075 3.54853 9.20065C3.61356 9.2442 3.67444 9.2961 3.7962 9.39985C4.10215 9.6606 4.2551 9.79095 4.41505 9.8674C4.785 10.0442 5.215 10.0442 5.58495 9.8674C5.7449 9.79095 5.89785 9.6606 6.2038 9.39985C6.32555 9.2961 6.38645 9.2442 6.45145 9.20065C6.6005 9.10075 6.7679 9.0314 6.94395 8.99665C7.02075 8.9815 7.1005 8.9751 7.25995 8.9624C7.66065 8.9304 7.861 8.9144 8.02815 8.8554C8.41475 8.71885 8.71885 8.41475 8.8554 8.02815C8.9144 7.861 8.9304 7.66065 8.9624 7.25995C8.9751 7.1005 8.9815 7.02075 8.99665 6.94395C9.0314 6.7679 9.10075 6.6005 9.20065 6.45145C9.2442 6.38645 9.2961 6.32555 9.39985 6.2038C9.6606 5.89785 9.79095 5.7449 9.8674 5.58495C10.0442 5.215 10.0442 4.785 9.8674 4.41505C9.79095 4.2551 9.6606 4.10215 9.39985 3.7962C9.2961 3.67444 9.2442 3.61356 9.20065 3.54853C9.10075 3.39948 9.0314 3.23209 8.99665 3.05605C8.9815 2.97926 8.9751 2.89952 8.9624 2.74004C8.9304 2.33935 8.9144 2.139 8.8554 1.97186C8.71885 1.58526 8.41475 1.28117 8.02815 1.14462C7.861 1.08558 7.66065 1.06959 7.25995 1.03761C7.1005 1.02489 7.02075 1.01853 6.94395 1.00336C6.7679 0.968606 6.6005 0.899271 6.45145 0.799371C6.38645 0.755791 6.32555 0.703906 6.2038 0.600136C5.89785 0.339416 5.7449 0.209056 5.58495 0.132611C5.215 -0.0442038 4.785 -0.0442038 4.41505 0.132611C4.2551 0.209051 4.10215 0.339416 3.7962 0.600136ZM7.18675 3.93157C7.34565 3.77265 7.34565 3.515 7.18675 3.35608C7.02785 3.19717 6.77015 3.19717 6.61125 3.35608L4.18615 5.7812L3.38873 4.9838C3.22982 4.8249 2.97216 4.8249 2.81325 4.9838C2.65433 5.1427 2.65433 5.40035 2.81325 5.5593L3.89839 6.64445C4.0573 6.80335 4.31495 6.80335 4.4739 6.64445L7.18675 3.93157Z" fill="#03A1E7"/>
</svg>
