<svg width="25" height="25" viewBox="0 0 25 25" fill="none" xmlns="http://www.w3.org/2000/svg">
<path d="M16.1906 0C16.1888 2.207 16.1853 4.41394 16.1882 6.62094C16.1885 6.79473 16.1477 6.92197 16.0199 7.04916C14.8799 8.18375 13.7476 9.32613 12.6126 10.4657C12.5623 10.5162 12.5081 10.5628 12.4468 10.6195C12.3855 10.5628 12.3313 10.5163 12.281 10.4657C11.146 9.32606 10.0137 8.18375 8.8737 7.04916C8.74594 6.92203 8.70512 6.79479 8.70537 6.62094C8.70842 4.414 8.70494 2.207 8.70311 0C11.1989 0 13.6948 0 16.1906 0Z" fill="white"/>
<path d="M0 8.74762C2.19577 8.74946 4.39148 8.75295 6.58725 8.75001C6.76015 8.74977 6.88675 8.79079 7.01328 8.9192C8.1421 10.065 9.27866 11.2032 10.4125 12.3439C10.4627 12.3945 10.5091 12.449 10.5654 12.5106C10.5091 12.5722 10.4628 12.6267 10.4125 12.6772C9.2786 13.818 8.1421 14.9562 7.01328 16.102C6.88681 16.2304 6.76015 16.2714 6.58725 16.2712C4.39148 16.2682 2.19577 16.2716 0 16.2734C0 13.7649 0 11.2562 0 8.74762Z" fill="white"/>
<path d="M14.3226 12.5031C15.55 11.2693 16.7575 10.054 17.9691 8.84302C18.0193 8.79286 18.1085 8.75705 18.1797 8.75692C20.3909 8.75343 22.6021 8.75515 24.8133 8.75674C24.8284 8.75674 24.8435 8.7649 24.8761 8.77434C24.8761 11.2564 24.8761 13.7433 24.8761 16.268C24.8046 16.268 24.7274 16.268 24.6503 16.268C22.52 16.268 20.3897 16.2697 18.2595 16.263C18.1517 16.2627 18.0144 16.2206 17.9408 16.1473C16.7606 14.9734 15.5884 13.7912 14.4148 12.6106C14.3872 12.5828 14.3636 12.5511 14.3226 12.5031Z" fill="white"/>
<path d="M8.70863 25C8.70863 24.2551 8.70863 23.531 8.70863 22.8068C8.70863 21.3251 8.70582 19.8433 8.71412 18.3617C8.71479 18.2467 8.76214 18.1013 8.84011 18.022C10.0019 16.8411 11.1724 15.6688 12.3411 14.4948C12.3692 14.4665 12.4001 14.4411 12.4444 14.4012C12.5058 14.4576 12.5658 14.5084 12.6211 14.5639C13.7558 15.703 14.8917 16.841 16.0207 17.9859C16.102 18.0683 16.1778 18.2023 16.1783 18.3126C16.1874 20.5026 16.185 22.6926 16.1846 24.8826C16.1846 24.9148 16.1802 24.947 16.1763 25C13.6951 25 11.2154 25 8.70863 25Z" fill="white"/>
</svg>
