<svg width="93" height="20" viewBox="0 0 93 20" fill="none" xmlns="http://www.w3.org/2000/svg">
<path d="M7.28528 15.2C6.09862 15.2 5.05862 14.9867 4.16528 14.56C3.28528 14.12 2.54528 13.54 1.94528 12.82C1.35862 12.0867 0.91195 11.2733 0.605283 10.38C0.31195 9.47333 0.165283 8.54667 0.165283 7.6C0.165283 6.65333 0.31195 5.72667 0.605283 4.82C0.91195 3.91333 1.35862 3.1 1.94528 2.38C2.54528 1.64667 3.28528 1.06667 4.16528 0.639999C5.05862 0.213332 6.09862 -1.19209e-06 7.28528 -1.19209e-06C8.25862 -1.19209e-06 9.09195 0.126666 9.78528 0.38C10.492 0.633333 11.0786 0.96 11.5453 1.36C12.0253 1.74667 12.4053 2.16 12.6853 2.6C12.9786 3.04 13.192 3.46 13.3253 3.86C13.472 4.26 13.572 4.58667 13.6253 4.84C13.6786 5.08 13.7053 5.2 13.7053 5.2H11.3653C11.3653 5.2 11.3386 5.1 11.2853 4.9C11.2453 4.68667 11.1453 4.42667 10.9853 4.12C10.8386 3.81333 10.612 3.51333 10.3053 3.22C10.012 2.91333 9.61862 2.66 9.12528 2.46C8.64528 2.24667 8.03862 2.14 7.30528 2.14C6.51862 2.14 5.82528 2.29333 5.22528 2.6C4.63862 2.90667 4.14528 3.32 3.74528 3.84C3.34528 4.36 3.04528 4.94667 2.84528 5.6C2.65862 6.25333 2.56528 6.92 2.56528 7.6C2.56528 8.28 2.65862 8.94667 2.84528 9.6C3.04528 10.24 3.34528 10.8267 3.74528 11.36C4.14528 11.88 4.63862 12.2933 5.22528 12.6C5.82528 12.9067 6.51862 13.06 7.30528 13.06C8.03862 13.06 8.64528 12.96 9.12528 12.76C9.61862 12.5467 10.012 12.2867 10.3053 11.98C10.612 11.6733 10.8386 11.3667 10.9853 11.06C11.1453 10.7533 11.2453 10.5 11.2853 10.3C11.3386 10.0867 11.3653 9.98 11.3653 9.98H13.7053C13.7053 9.98 13.6786 10.1067 13.6253 10.36C13.572 10.6133 13.472 10.94 13.3253 11.34C13.192 11.7267 12.9786 12.1467 12.6853 12.6C12.4053 13.04 12.0253 13.46 11.5453 13.86C11.0786 14.2467 10.492 14.5667 9.78528 14.82C9.09195 15.0733 8.25862 15.2 7.28528 15.2ZM20.6122 4.2C21.2788 4.2 21.8322 4.30667 22.2722 4.52C22.7255 4.73333 23.0855 4.98 23.3522 5.26C23.6188 5.54 23.8122 5.78 23.9322 5.98H24.0522V4.4H26.3322V15H24.0522V13.42H23.9322C23.8122 13.62 23.6188 13.86 23.3522 14.14C23.0855 14.42 22.7255 14.6667 22.2722 14.88C21.8322 15.0933 21.2788 15.2 20.6122 15.2C19.8122 15.2 19.1122 15.0467 18.5122 14.74C17.9255 14.42 17.4322 14 17.0322 13.48C16.6322 12.9467 16.3322 12.3533 16.1322 11.7C15.9455 11.0467 15.8522 10.38 15.8522 9.7C15.8522 9.02 15.9455 8.35333 16.1322 7.7C16.3322 7.04667 16.6322 6.46 17.0322 5.94C17.4322 5.40667 17.9255 4.98667 18.5122 4.68C19.1122 4.36 19.8122 4.2 20.6122 4.2ZM21.1122 6.1C20.4588 6.1 19.9122 6.28 19.4722 6.64C19.0322 6.98667 18.6988 7.43333 18.4722 7.98C18.2588 8.52667 18.1522 9.1 18.1522 9.7C18.1522 10.3 18.2588 10.8733 18.4722 11.42C18.6988 11.9667 19.0322 12.42 19.4722 12.78C19.9122 13.1267 20.4588 13.3 21.1122 13.3C21.7655 13.3 22.3055 13.1267 22.7322 12.78C23.1722 12.42 23.4988 11.9667 23.7122 11.42C23.9388 10.8733 24.0522 10.3 24.0522 9.7C24.0522 9.1 23.9388 8.52667 23.7122 7.98C23.4988 7.43333 23.1722 6.98667 22.7322 6.64C22.3055 6.28 21.7655 6.1 21.1122 6.1ZM33.3089 15.2C32.4689 15.2 31.7955 15.0467 31.2889 14.74C30.7822 14.4333 30.4155 14.0267 30.1889 13.52C29.9755 13 29.8689 12.44 29.8689 11.84V6.24H28.0089V4.4H29.8689V1.76H32.1489V4.4H34.6289V6.24H32.1489V11.8C32.1489 12.8 32.7022 13.3 33.8089 13.3C34.0889 13.3 34.3489 13.28 34.5889 13.24C34.8289 13.2 34.9489 13.18 34.9489 13.18V15.04C34.9489 15.04 34.7822 15.0667 34.4489 15.12C34.1289 15.1733 33.7489 15.2 33.3089 15.2ZM41.9497 15.2C41.0563 15.2 40.283 15.0467 39.6297 14.74C38.9897 14.42 38.4563 14 38.0297 13.48C37.6163 12.9467 37.303 12.3533 37.0897 11.7C36.8897 11.0467 36.7897 10.38 36.7897 9.7C36.7897 9.03333 36.8897 8.37333 37.0897 7.72C37.2897 7.06667 37.5963 6.47333 38.0097 5.94C38.423 5.40667 38.9497 4.98667 39.5897 4.68C40.2297 4.36 40.983 4.2 41.8497 4.2C42.783 4.2 43.603 4.41333 44.3097 4.84C45.0297 5.25333 45.5897 5.87333 45.9897 6.7C46.403 7.51333 46.6097 8.52667 46.6097 9.74V10.36H39.0897C39.143 11.1733 39.4163 11.8733 39.9097 12.46C40.403 13.0467 41.083 13.34 41.9497 13.34C42.443 13.34 42.8497 13.26 43.1697 13.1C43.4897 12.9267 43.7363 12.7333 43.9097 12.52C44.083 12.3067 44.203 12.12 44.2697 11.96C44.3497 11.8 44.3897 11.72 44.3897 11.72H46.5097C46.5097 11.72 46.4763 11.84 46.4097 12.08C46.343 12.3067 46.2163 12.5933 46.0297 12.94C45.8563 13.2867 45.603 13.6333 45.2697 13.98C44.9363 14.3267 44.4963 14.62 43.9497 14.86C43.403 15.0867 42.7363 15.2 41.9497 15.2ZM39.1097 8.76H44.4097C44.3563 7.82667 44.0763 7.14 43.5697 6.7C43.0763 6.26 42.4963 6.04 41.8297 6.04C41.083 6.04 40.463 6.28667 39.9697 6.78C39.4763 7.26 39.1897 7.92 39.1097 8.76ZM54.2014 19.22C53.2814 19.22 52.5214 19.1 51.9214 18.86C51.3214 18.62 50.8414 18.32 50.4814 17.96C50.1214 17.6133 49.8547 17.26 49.6814 16.9C49.508 16.5533 49.3947 16.26 49.3414 16.02C49.288 15.78 49.2614 15.66 49.2614 15.66H51.5214C51.5214 15.66 51.548 15.74 51.6014 15.9C51.6547 16.0733 51.768 16.2667 51.9414 16.48C52.128 16.7067 52.4014 16.9 52.7614 17.06C53.1214 17.2333 53.5947 17.32 54.1814 17.32C54.8747 17.32 55.428 17.18 55.8414 16.9C56.268 16.6333 56.568 16.2733 56.7414 15.82C56.928 15.38 57.0214 14.9 57.0214 14.38V13.18H56.9214C56.7747 13.4067 56.5614 13.66 56.2814 13.94C56.0147 14.2067 55.6547 14.44 55.2014 14.64C54.748 14.84 54.2014 14.94 53.5614 14.94C52.7614 14.94 52.0614 14.7867 51.4614 14.48C50.8747 14.1733 50.3814 13.7667 49.9814 13.26C49.5947 12.74 49.3014 12.16 49.1014 11.52C48.9014 10.88 48.8014 10.2267 48.8014 9.56C48.8014 8.89333 48.9014 8.24667 49.1014 7.62C49.3014 6.98 49.5947 6.40667 49.9814 5.9C50.3814 5.38 50.8747 4.96667 51.4614 4.66C52.0614 4.35333 52.7614 4.2 53.5614 4.2C54.2014 4.2 54.748 4.3 55.2014 4.5C55.6547 4.68667 56.0214 4.92 56.3014 5.2C56.5814 5.46667 56.788 5.72 56.9214 5.96H57.0214V4.4H59.3014V14.36C59.3014 15.3067 59.108 16.1467 58.7214 16.88C58.3347 17.6133 57.7614 18.1867 57.0014 18.6C56.2414 19.0133 55.308 19.22 54.2014 19.22ZM54.0814 13.06C54.7347 13.06 55.2814 12.8933 55.7214 12.56C56.1614 12.2133 56.488 11.7733 56.7014 11.24C56.9147 10.7067 57.0214 10.1467 57.0214 9.56C57.0214 8.97333 56.9147 8.41333 56.7014 7.88C56.488 7.34667 56.1614 6.91333 55.7214 6.58C55.2814 6.24667 54.7347 6.08 54.0814 6.08C53.4147 6.08 52.8614 6.24667 52.4214 6.58C51.9814 6.91333 51.6547 7.34667 51.4414 7.88C51.228 8.41333 51.1214 8.97333 51.1214 9.56C51.1214 10.1467 51.228 10.7067 51.4414 11.24C51.6547 11.7733 51.9814 12.2133 52.4214 12.56C52.8614 12.8933 53.4147 13.06 54.0814 13.06ZM66.7976 15.2C65.6376 15.2 64.6576 14.94 63.8576 14.42C63.071 13.9 62.471 13.22 62.0576 12.38C61.6576 11.54 61.4576 10.6467 61.4576 9.7C61.4576 8.75333 61.6576 7.86 62.0576 7.02C62.471 6.18 63.071 5.5 63.8576 4.98C64.6576 4.46 65.6376 4.2 66.7976 4.2C67.9443 4.2 68.911 4.46 69.6976 4.98C70.4976 5.5 71.0976 6.18 71.4976 7.02C71.911 7.86 72.1176 8.75333 72.1176 9.7C72.1176 10.6467 71.911 11.54 71.4976 12.38C71.0976 13.22 70.4976 13.9 69.6976 14.42C68.911 14.94 67.9443 15.2 66.7976 15.2ZM66.7976 13.26C67.451 13.26 67.9976 13.0933 68.4376 12.76C68.891 12.4267 69.231 11.9867 69.4576 11.44C69.6976 10.8933 69.8176 10.3133 69.8176 9.7C69.8176 9.07333 69.6976 8.49333 69.4576 7.96C69.231 7.41333 68.891 6.97333 68.4376 6.64C67.9976 6.30667 67.451 6.14 66.7976 6.14C66.1443 6.14 65.591 6.30667 65.1376 6.64C64.6843 6.97333 64.3443 7.41333 64.1176 7.96C63.891 8.49333 63.7776 9.07333 63.7776 9.7C63.7776 10.3133 63.891 10.8933 64.1176 11.44C64.3443 11.9867 64.6843 12.4267 65.1376 12.76C65.591 13.0933 66.1443 13.26 66.7976 13.26ZM74.5868 15V4.4H76.8668V5.8H76.9468C77.1468 5.38667 77.4602 5.02 77.8868 4.7C78.3268 4.36667 78.9602 4.2 79.7868 4.2C80.0402 4.2 80.2535 4.21333 80.4268 4.24C80.6135 4.26667 80.7068 4.28 80.7068 4.28V6.48C80.7068 6.48 80.6068 6.46667 80.4068 6.44C80.2068 6.41333 79.9802 6.4 79.7268 6.4C78.7935 6.4 78.0802 6.66667 77.5868 7.2C77.1068 7.72 76.8668 8.56667 76.8668 9.74V15H74.5868ZM83.2718 18.9C82.9385 18.9 82.6652 18.8867 82.4518 18.86C82.2385 18.8333 82.1318 18.82 82.1318 18.82V16.92C82.1318 16.92 82.2385 16.9267 82.4518 16.94C82.6652 16.9667 82.8985 16.98 83.1518 16.98C83.8852 16.98 84.4852 16.84 84.9518 16.56C85.4318 16.2933 85.8385 15.82 86.1718 15.14L82.1318 4.4H84.4518L87.3118 12.34L90.1718 4.4H92.5318L88.5318 14.88C87.9985 16.2533 87.3185 17.2667 86.4918 17.92C85.6652 18.5733 84.5918 18.9 83.2718 18.9Z" fill="white"/>
</svg>
