<svg width="25" height="25" viewBox="0 0 25 25" fill="none" xmlns="http://www.w3.org/2000/svg">
<path d="M0 21.4844C0.144374 21.0827 0.24867 20.6605 0.441552 20.2836C0.832373 19.5201 1.46167 18.9626 2.16178 18.4859C3.72277 17.4229 5.46928 16.7986 7.2846 16.3424C9.18606 15.8645 11.1131 15.5526 13.0783 15.6446C15.9064 15.777 18.637 16.3719 21.2185 17.5577C22.2949 18.0522 23.3035 18.6644 24.0885 19.5808C24.5411 20.1091 24.8643 20.7019 24.9687 21.3998C24.9731 21.4294 24.9957 21.4562 25.0098 21.4844C25.0098 22.6562 25.0098 23.8281 25.0098 25C16.6732 25 8.3366 25 7.66316e-05 25C0 23.8281 0 22.6563 0 21.4844Z" fill="white"/>
<path d="M12.9934 7.66016e-05C13.5833 0.144011 14.2015 0.218238 14.758 0.444289C16.9272 1.32551 18.2479 2.93583 18.6615 5.24698C19.1565 8.01337 17.6258 10.8097 14.9847 11.9849C12.6736 13.0133 9.7395 12.4524 8.02019 10.5806C6.23813 8.64058 5.7545 6.39033 6.7206 3.9397C7.56623 1.79462 9.21044 0.520431 11.4905 0.0933007C11.6656 0.0605153 11.8412 0.0310236 12.0165 0C12.3421 7.66016e-05 12.6678 7.66016e-05 12.9934 7.66016e-05Z" fill="white"/>
</svg>
