<svg width="81" height="16" viewBox="0 0 81 16" fill="none" xmlns="http://www.w3.org/2000/svg">
<path d="M7.12 15.2C5.93333 15.2 4.89333 14.9867 4 14.56C3.12 14.12 2.38 13.54 1.78 12.82C1.19333 12.0867 0.746667 11.2733 0.44 10.38C0.146667 9.47333 1.49012e-08 8.54667 1.49012e-08 7.6C1.49012e-08 6.65333 0.146667 5.72667 0.44 4.82C0.746667 3.91333 1.19333 3.1 1.78 2.38C2.38 1.64667 3.12 1.06667 4 0.639999C4.89333 0.213332 5.93333 -1.19209e-06 7.12 -1.19209e-06C8.09333 -1.19209e-06 8.92667 0.126666 9.62 0.38C10.3267 0.633333 10.9133 0.96 11.38 1.36C11.86 1.74667 12.24 2.16 12.52 2.6C12.8133 3.04 13.0267 3.46 13.16 3.86C13.3067 4.26 13.4067 4.58667 13.46 4.84C13.5133 5.08 13.54 5.2 13.54 5.2H11.2C11.2 5.2 11.1733 5.1 11.12 4.9C11.08 4.68667 10.98 4.42667 10.82 4.12C10.6733 3.81333 10.4467 3.51333 10.14 3.22C9.84667 2.91333 9.45333 2.66 8.96 2.46C8.48 2.24667 7.87333 2.14 7.14 2.14C6.35333 2.14 5.66 2.29333 5.06 2.6C4.47333 2.90667 3.98 3.32 3.58 3.84C3.18 4.36 2.88 4.94667 2.68 5.6C2.49333 6.25333 2.4 6.92 2.4 7.6C2.4 8.28 2.49333 8.94667 2.68 9.6C2.88 10.24 3.18 10.8267 3.58 11.36C3.98 11.88 4.47333 12.2933 5.06 12.6C5.66 12.9067 6.35333 13.06 7.14 13.06C7.87333 13.06 8.48 12.96 8.96 12.76C9.45333 12.5467 9.84667 12.2867 10.14 11.98C10.4467 11.6733 10.6733 11.3667 10.82 11.06C10.98 10.7533 11.08 10.5 11.12 10.3C11.1733 10.0867 11.2 9.98 11.2 9.98H13.54C13.54 9.98 13.5133 10.1067 13.46 10.36C13.4067 10.6133 13.3067 10.94 13.16 11.34C13.0267 11.7267 12.8133 12.1467 12.52 12.6C12.24 13.04 11.86 13.46 11.38 13.86C10.9133 14.2467 10.3267 14.5667 9.62 14.82C8.92667 15.0733 8.09333 15.2 7.12 15.2ZM21.0269 15.2C19.8669 15.2 18.8869 14.94 18.0869 14.42C17.3002 13.9 16.7002 13.22 16.2869 12.38C15.8869 11.54 15.6869 10.6467 15.6869 9.7C15.6869 8.75333 15.8869 7.86 16.2869 7.02C16.7002 6.18 17.3002 5.5 18.0869 4.98C18.8869 4.46 19.8669 4.2 21.0269 4.2C22.1735 4.2 23.1402 4.46 23.9269 4.98C24.7269 5.5 25.3269 6.18 25.7269 7.02C26.1402 7.86 26.3469 8.75333 26.3469 9.7C26.3469 10.6467 26.1402 11.54 25.7269 12.38C25.3269 13.22 24.7269 13.9 23.9269 14.42C23.1402 14.94 22.1735 15.2 21.0269 15.2ZM21.0269 13.26C21.6802 13.26 22.2269 13.0933 22.6669 12.76C23.1202 12.4267 23.4602 11.9867 23.6869 11.44C23.9269 10.8933 24.0469 10.3133 24.0469 9.7C24.0469 9.07333 23.9269 8.49333 23.6869 7.96C23.4602 7.41333 23.1202 6.97333 22.6669 6.64C22.2269 6.30667 21.6802 6.14 21.0269 6.14C20.3735 6.14 19.8202 6.30667 19.3669 6.64C18.9135 6.97333 18.5735 7.41333 18.3469 7.96C18.1202 8.49333 18.0069 9.07333 18.0069 9.7C18.0069 10.3133 18.1202 10.8933 18.3469 11.44C18.5735 11.9867 18.9135 12.4267 19.3669 12.76C19.8202 13.0933 20.3735 13.26 21.0269 13.26ZM28.777 15V4.4H31.057V5.94H31.177C31.2704 5.75333 31.4304 5.52667 31.657 5.26C31.8837 4.98 32.197 4.73333 32.597 4.52C33.0104 4.30667 33.5304 4.2 34.157 4.2C34.9437 4.2 35.6037 4.38 36.137 4.74C36.6704 5.1 37.0704 5.58 37.337 6.18C37.617 6.78 37.757 7.44 37.757 8.16V15H35.477V8.4C35.477 7.76 35.297 7.22 34.937 6.78C34.5904 6.34 34.0704 6.12 33.377 6.12C32.8304 6.12 32.3837 6.26 32.037 6.54C31.7037 6.80667 31.457 7.16 31.297 7.6C31.137 8.02667 31.057 8.48667 31.057 8.98V15H28.777ZM44.7256 15.2C43.8856 15.2 43.2123 15.0467 42.7056 14.74C42.199 14.4333 41.8323 14.0267 41.6056 13.52C41.3923 13 41.2856 12.44 41.2856 11.84V6.24H39.4256V4.4H41.2856V1.76H43.5656V4.4H46.0456V6.24H43.5656V11.8C43.5656 12.8 44.119 13.3 45.2256 13.3C45.5056 13.3 45.7656 13.28 46.0056 13.24C46.2456 13.2 46.3656 13.18 46.3656 13.18V15.04C46.3656 15.04 46.199 15.0667 45.8656 15.12C45.5456 15.1733 45.1656 15.2 44.7256 15.2ZM52.9664 4.2C53.6331 4.2 54.1864 4.30667 54.6264 4.52C55.0797 4.73333 55.4397 4.98 55.7064 5.26C55.9731 5.54 56.1664 5.78 56.2864 5.98H56.4064V4.4H58.6864V15H56.4064V13.42H56.2864C56.1664 13.62 55.9731 13.86 55.7064 14.14C55.4397 14.42 55.0797 14.6667 54.6264 14.88C54.1864 15.0933 53.6331 15.2 52.9664 15.2C52.1664 15.2 51.4664 15.0467 50.8664 14.74C50.2797 14.42 49.7864 14 49.3864 13.48C48.9864 12.9467 48.6864 12.3533 48.4864 11.7C48.2997 11.0467 48.2064 10.38 48.2064 9.7C48.2064 9.02 48.2997 8.35333 48.4864 7.7C48.6864 7.04667 48.9864 6.46 49.3864 5.94C49.7864 5.40667 50.2797 4.98667 50.8664 4.68C51.4664 4.36 52.1664 4.2 52.9664 4.2ZM53.4664 6.1C52.8131 6.1 52.2664 6.28 51.8264 6.64C51.3864 6.98667 51.0531 7.43333 50.8264 7.98C50.6131 8.52667 50.5064 9.1 50.5064 9.7C50.5064 10.3 50.6131 10.8733 50.8264 11.42C51.0531 11.9667 51.3864 12.42 51.8264 12.78C52.2664 13.1267 52.8131 13.3 53.4664 13.3C54.1197 13.3 54.6597 13.1267 55.0864 12.78C55.5264 12.42 55.8531 11.9667 56.0664 11.42C56.2931 10.8733 56.4064 10.3 56.4064 9.7C56.4064 9.1 56.2931 8.52667 56.0664 7.98C55.8531 7.43333 55.5264 6.98667 55.0864 6.64C54.6597 6.28 54.1197 6.1 53.4664 6.1ZM66.5147 15.2C65.6214 15.2 64.8414 15.0467 64.1747 14.74C63.508 14.42 62.9547 14 62.5147 13.48C62.0747 12.9467 61.7414 12.3533 61.5147 11.7C61.3014 11.0467 61.1947 10.38 61.1947 9.7C61.1947 9.02 61.3014 8.35333 61.5147 7.7C61.7414 7.04667 62.0747 6.46 62.5147 5.94C62.9547 5.40667 63.508 4.98667 64.1747 4.68C64.8414 4.36 65.6214 4.2 66.5147 4.2C67.3947 4.2 68.1214 4.33333 68.6947 4.6C69.2814 4.85333 69.748 5.17333 70.0947 5.56C70.4414 5.94667 70.7014 6.33333 70.8747 6.72C71.048 7.10667 71.1547 7.43333 71.1947 7.7C71.248 7.96667 71.2747 8.1 71.2747 8.1H69.1147C69.1147 8.1 69.0814 8 69.0147 7.8C68.9614 7.6 68.848 7.36667 68.6747 7.1C68.5014 6.83333 68.2414 6.6 67.8947 6.4C67.5614 6.2 67.108 6.1 66.5347 6.1C65.8547 6.1 65.288 6.27333 64.8347 6.62C64.3814 6.95333 64.0347 7.39333 63.7947 7.94C63.568 8.48667 63.4547 9.07333 63.4547 9.7C63.4547 10.3267 63.568 10.9133 63.7947 11.46C64.0347 12.0067 64.3814 12.4533 64.8347 12.8C65.288 13.1333 65.8547 13.3 66.5347 13.3C67.108 13.3 67.5614 13.2 67.8947 13C68.2414 12.8 68.5014 12.5667 68.6747 12.3C68.848 12.0333 68.9614 11.8 69.0147 11.6C69.0814 11.4 69.1147 11.3 69.1147 11.3H71.2747C71.2747 11.3 71.248 11.4333 71.1947 11.7C71.1547 11.9667 71.048 12.2933 70.8747 12.68C70.7014 13.0667 70.4414 13.4533 70.0947 13.84C69.748 14.2267 69.2814 14.5533 68.6947 14.82C68.1214 15.0733 67.3947 15.2 66.5147 15.2ZM78.378 15.2C77.538 15.2 76.8646 15.0467 76.358 14.74C75.8513 14.4333 75.4846 14.0267 75.258 13.52C75.0446 13 74.938 12.44 74.938 11.84V6.24H73.078V4.4H74.938V1.76H77.218V4.4H79.698V6.24H77.218V11.8C77.218 12.8 77.7713 13.3 78.878 13.3C79.158 13.3 79.418 13.28 79.658 13.24C79.898 13.2 80.018 13.18 80.018 13.18V15.04C80.018 15.04 79.8513 15.0667 79.518 15.12C79.198 15.1733 78.818 15.2 78.378 15.2Z" fill="white"/>
</svg>
