<svg width="10" height="19" viewBox="0 0 10 19" fill="none" xmlns="http://www.w3.org/2000/svg">
<path d="M0.30059 9.92585H2.34346V18.336C2.34346 18.5021 2.47801 18.6366 2.64405 18.6366H6.10782C6.27386 18.6366 6.40841 18.5021 6.40841 18.336V9.96547H8.75686C8.90956 9.96547 9.03803 9.85089 9.05546 9.69921L9.41215 6.60301C9.42195 6.51782 9.39495 6.43251 9.33796 6.36861C9.28091 6.30464 9.19927 6.26803 9.1136 6.26803H6.40853V4.32718C6.40853 3.74211 6.72355 3.44543 7.34493 3.44543C7.43348 3.44543 9.1136 3.44543 9.1136 3.44543C9.27965 3.44543 9.41419 3.31082 9.41419 3.14484V0.302815C9.41419 0.136769 9.27965 0.00222437 9.1136 0.00222437H6.67611C6.65892 0.00138272 6.62074 0 6.56447 0C6.14154 0 4.67147 0.083023 3.51023 1.15132C2.22359 2.33517 2.40244 3.75263 2.44518 3.99839V6.26797H0.30059C0.134544 6.26797 0 6.40251 0 6.56856V9.6252C0 9.79125 0.134544 9.92585 0.30059 9.92585Z" fill="white"/>
</svg>
