<svg width="37" height="37" viewBox="0 0 37 37" fill="none" xmlns="http://www.w3.org/2000/svg">
<circle cx="18.5" cy="18.5" r="18.5" fill="#1A79F2"/>
<path d="M14.3006 19.9259H16.3435V28.336C16.3435 28.5021 16.478 28.6366 16.6441 28.6366H20.1078C20.2739 28.6366 20.4084 28.5021 20.4084 28.336V19.9655H22.7569C22.9096 19.9655 23.038 19.8509 23.0555 19.6992L23.4121 16.603C23.4219 16.5178 23.395 16.4325 23.338 16.3686C23.2809 16.3046 23.1993 16.268 23.1136 16.268H20.4085V14.3272C20.4085 13.7421 20.7235 13.4454 21.3449 13.4454C21.4335 13.4454 23.1136 13.4454 23.1136 13.4454C23.2796 13.4454 23.4142 13.3108 23.4142 13.1448V10.3028C23.4142 10.1368 23.2796 10.0022 23.1136 10.0022H20.6761C20.6589 10.0014 20.6207 10 20.5645 10C20.1415 10 18.6715 10.083 17.5102 11.1513C16.2236 12.3352 16.4024 13.7526 16.4452 13.9984V16.268H14.3006C14.1345 16.268 14 16.4025 14 16.5686V19.6252C14 19.7912 14.1345 19.9259 14.3006 19.9259Z" fill="white"/>
</svg>
