<svg width="55" height="16" viewBox="0 0 55 16" fill="none" xmlns="http://www.w3.org/2000/svg">
<path d="M0.2859 15V0.2H2.6259V6.44H9.2459V0.2H11.5859V15H9.2459V8.52H2.6259V15H0.2859ZM19.5428 15.2C18.3828 15.2 17.4028 14.94 16.6028 14.42C15.8161 13.9 15.2161 13.22 14.8028 12.38C14.4028 11.54 14.2028 10.6467 14.2028 9.7C14.2028 8.75333 14.4028 7.86 14.8028 7.02C15.2161 6.18 15.8161 5.5 16.6028 4.98C17.4028 4.46 18.3828 4.2 19.5428 4.2C20.6894 4.2 21.6561 4.46 22.4428 4.98C23.2428 5.5 23.8428 6.18 24.2428 7.02C24.6561 7.86 24.8628 8.75333 24.8628 9.7C24.8628 10.6467 24.6561 11.54 24.2428 12.38C23.8428 13.22 23.2428 13.9 22.4428 14.42C21.6561 14.94 20.6894 15.2 19.5428 15.2ZM19.5428 13.26C20.1961 13.26 20.7428 13.0933 21.1828 12.76C21.6361 12.4267 21.9761 11.9867 22.2028 11.44C22.4428 10.8933 22.5628 10.3133 22.5628 9.7C22.5628 9.07333 22.4428 8.49333 22.2028 7.96C21.9761 7.41333 21.6361 6.97333 21.1828 6.64C20.7428 6.30667 20.1961 6.14 19.5428 6.14C18.8894 6.14 18.3361 6.30667 17.8828 6.64C17.4294 6.97333 17.0894 7.41333 16.8628 7.96C16.6361 8.49333 16.5228 9.07333 16.5228 9.7C16.5228 10.3133 16.6361 10.8933 16.8628 11.44C17.0894 11.9867 17.4294 12.4267 17.8828 12.76C18.3361 13.0933 18.8894 13.26 19.5428 13.26ZM27.2929 15V4.4H29.5729V5.9H29.6529C29.7729 5.68667 29.9463 5.44667 30.1729 5.18C30.4129 4.91333 30.7263 4.68667 31.1129 4.5C31.4996 4.3 31.9863 4.2 32.5729 4.2C33.3596 4.2 34.0129 4.38667 34.5329 4.76C35.0529 5.13333 35.4396 5.62667 35.6929 6.24H35.7329C36.0129 5.70667 36.4196 5.23333 36.9529 4.82C37.4863 4.40667 38.1929 4.2 39.0729 4.2C39.8196 4.2 40.4529 4.38 40.9729 4.74C41.4929 5.08667 41.8796 5.56 42.1329 6.16C42.3996 6.74667 42.5329 7.41333 42.5329 8.16V15H40.2529V8.48C40.2529 7.78667 40.0863 7.22 39.7529 6.78C39.4196 6.34 38.9263 6.12 38.2729 6.12C37.7396 6.12 37.3063 6.26667 36.9729 6.56C36.6529 6.85333 36.4196 7.22 36.2729 7.66C36.1263 8.08667 36.0529 8.52 36.0529 8.96V15H33.7729V8.48C33.7729 7.78667 33.6063 7.22 33.2729 6.78C32.9396 6.34 32.4463 6.12 31.7929 6.12C31.2596 6.12 30.8263 6.26667 30.4929 6.56C30.1729 6.85333 29.9396 7.22 29.7929 7.66C29.6463 8.08667 29.5729 8.52 29.5729 8.96V15H27.2929ZM50.105 15.2C49.2116 15.2 48.4383 15.0467 47.785 14.74C47.145 14.42 46.6116 14 46.185 13.48C45.7716 12.9467 45.4583 12.3533 45.245 11.7C45.045 11.0467 44.945 10.38 44.945 9.7C44.945 9.03333 45.045 8.37333 45.245 7.72C45.445 7.06667 45.7516 6.47333 46.165 5.94C46.5783 5.40667 47.105 4.98667 47.745 4.68C48.385 4.36 49.1383 4.2 50.005 4.2C50.9383 4.2 51.7583 4.41333 52.465 4.84C53.185 5.25333 53.745 5.87333 54.145 6.7C54.5583 7.51333 54.765 8.52667 54.765 9.74V10.36H47.245C47.2983 11.1733 47.5716 11.8733 48.065 12.46C48.5583 13.0467 49.2383 13.34 50.105 13.34C50.5983 13.34 51.005 13.26 51.325 13.1C51.645 12.9267 51.8916 12.7333 52.065 12.52C52.2383 12.3067 52.3583 12.12 52.425 11.96C52.505 11.8 52.545 11.72 52.545 11.72H54.665C54.665 11.72 54.6316 11.84 54.565 12.08C54.4983 12.3067 54.3716 12.5933 54.185 12.94C54.0116 13.2867 53.7583 13.6333 53.425 13.98C53.0916 14.3267 52.6516 14.62 52.105 14.86C51.5583 15.0867 50.8916 15.2 50.105 15.2ZM47.265 8.76H52.565C52.5116 7.82667 52.2316 7.14 51.725 6.7C51.2316 6.26 50.6516 6.04 49.985 6.04C49.2383 6.04 48.6183 6.28667 48.125 6.78C47.6316 7.26 47.345 7.92 47.265 8.76Z" fill="white"/>
</svg>
