<svg width="31" height="26" viewBox="0 0 31 26" fill="none" xmlns="http://www.w3.org/2000/svg">
<path d="M0.0111217 11.6485C3.71344 8.81397 7.41567 5.97925 11.1181 3.1449C12.3654 2.19006 13.6133 1.23611 14.861 0.281942C14.9781 0.192371 15.0958 0.103539 15.2321 0C17.3761 1.63977 19.5156 3.27615 21.7082 4.95317C21.7082 4.23357 21.7082 3.56511 21.7082 2.8747C23.1998 2.8747 24.6483 2.8747 26.1376 2.8747C26.1376 2.99997 26.1376 3.11482 26.1376 3.22966C26.1376 4.84475 26.1413 6.45992 26.1331 8.07501C26.132 8.27492 26.1988 8.39619 26.3559 8.5154C27.7247 9.55515 29.0871 10.6031 30.4514 11.6486C30.4514 11.6684 30.4514 11.688 30.4514 11.7077C30.3774 11.7816 30.2945 11.8485 30.2309 11.9303C29.6074 12.7314 28.9871 13.535 28.3499 14.3587C23.9745 11.0108 19.6145 7.67467 15.2313 4.32085C10.8664 7.66063 6.50604 10.9971 2.12883 14.3463C2.07258 14.2854 2.01796 14.2342 1.9727 14.1759C1.3858 13.4199 0.80112 12.6623 0.21295 11.9072C0.155359 11.8332 0.0788188 11.7738 0.0110474 11.7077C0.0111217 11.688 0.0111217 11.6683 0.0111217 11.6485Z" fill="white"/>
<path d="M25.6885 25.297C22.9968 25.297 20.3434 25.297 17.6516 25.297C17.6516 22.682 17.6516 20.0776 17.6516 17.4587C16.143 17.4587 14.6728 17.4587 13.1762 17.4587C13.1762 20.0729 13.1762 22.6709 13.1762 25.2885C10.3698 25.2885 7.58992 25.2885 4.76433 25.2885C4.76433 25.1913 4.76433 25.0879 4.76433 24.9845C4.76433 21.6044 4.76485 18.2243 4.7627 14.8442C4.76262 14.6822 4.77667 14.5549 4.92863 14.439C8.32434 11.8494 11.7149 9.25305 15.1067 6.65829C15.1448 6.6291 15.1859 6.60375 15.2382 6.56805C16.1933 7.29844 17.1426 8.02381 18.0912 8.74991C20.5562 10.6364 23.0202 12.524 25.4874 14.4076C25.6205 14.5092 25.7033 14.6024 25.7029 14.7884C25.6965 18.2177 25.6982 21.6471 25.6978 25.0764C25.6978 25.1432 25.6923 25.21 25.6885 25.297Z" fill="white"/>
</svg>
