<svg width="37" height="37" viewBox="0 0 37 37" fill="none" xmlns="http://www.w3.org/2000/svg">
<circle cx="18.5" cy="18.5" r="18.5" fill="#EF006E"/>
<g clip-path="url(#clip0_2001_2)">
<path d="M22.6377 9H15.3623C12.4055 9 10 11.4055 10 14.3623V21.6377C10 24.5945 12.4055 27 15.3623 27H22.6377C25.5945 27 28 24.5945 28 21.6377V14.3623C28 11.4055 25.5945 9 22.6377 9ZM26.1892 21.6377C26.1892 23.5991 24.5991 25.1892 22.6377 25.1892H15.3623C13.4009 25.1892 11.8108 23.5991 11.8108 21.6377V14.3623C11.8108 12.4008 13.4009 10.8108 15.3623 10.8108H22.6377C24.5991 10.8108 26.1892 12.4008 26.1892 14.3623V21.6377Z" fill="white"/>
<path d="M19.0002 13.3443C16.4332 13.3443 14.3447 15.4327 14.3447 17.9997C14.3447 20.5667 16.4332 22.6551 19.0002 22.6551C21.5672 22.6551 23.6556 20.5667 23.6556 17.9997C23.6556 15.4327 21.5672 13.3443 19.0002 13.3443ZM19.0002 20.8444C17.4291 20.8444 16.1555 19.5708 16.1555 17.9997C16.1555 16.4287 17.4291 15.1551 19.0002 15.1551C20.5712 15.1551 21.8448 16.4287 21.8448 17.9997C21.8448 19.5708 20.5712 20.8444 19.0002 20.8444Z" fill="white"/>
<path d="M23.6643 14.4947C24.2804 14.4947 24.7798 13.9953 24.7798 13.3792C24.7798 12.7631 24.2804 12.2637 23.6643 12.2637C23.0483 12.2637 22.5488 12.7631 22.5488 13.3792C22.5488 13.9953 23.0483 14.4947 23.6643 14.4947Z" fill="white"/>
</g>
<defs>
<clipPath id="clip0_2001_2">
<rect width="18" height="18" fill="white" transform="translate(10 9)"/>
</clipPath>
</defs>
</svg>
