<svg width="18" height="18" viewBox="0 0 18 18" fill="none" xmlns="http://www.w3.org/2000/svg">
<g clip-path="url(#clip0_15_389)">
<path d="M12.6377 0H5.3623C2.40551 0 0 2.40551 0 5.3623V12.6377C0 15.5945 2.40551 18 5.3623 18H12.6377C15.5945 18 18 15.5945 18 12.6377V5.3623C18 2.40551 15.5945 0 12.6377 0ZM16.1892 12.6377C16.1892 14.5991 14.5991 16.1892 12.6377 16.1892H5.3623C3.40088 16.1892 1.8108 14.5991 1.8108 12.6377V5.3623C1.8108 3.40084 3.40088 1.8108 5.3623 1.8108H12.6377C14.5991 1.8108 16.1892 3.40084 16.1892 5.3623V12.6377Z" fill="white"/>
<path d="M9.00017 4.3443C6.43315 4.3443 4.34473 6.43273 4.34473 8.99971C4.34473 11.5667 6.43315 13.6551 9.00017 13.6551C11.5672 13.6551 13.6556 11.5667 13.6556 8.99971C13.6556 6.43269 11.5672 4.3443 9.00017 4.3443ZM9.00017 11.8444C7.4291 11.8444 6.15553 10.5708 6.15553 8.99974C6.15553 7.42867 7.42913 6.1551 9.00017 6.1551C10.5712 6.1551 11.8448 7.42867 11.8448 8.99974C11.8448 10.5708 10.5712 11.8444 9.00017 11.8444Z" fill="white"/>
<path d="M13.6643 5.49468C14.2804 5.49468 14.7798 4.99526 14.7798 4.37918C14.7798 3.7631 14.2804 3.26367 13.6643 3.26367C13.0483 3.26367 12.5488 3.7631 12.5488 4.37918C12.5488 4.99526 13.0483 5.49468 13.6643 5.49468Z" fill="white"/>
</g>
<defs>
<clipPath id="clip0_15_389">
<rect width="18" height="18" fill="white"/>
</clipPath>
</defs>
</svg>
