<svg width="14" height="15" viewBox="0 0 14 15" fill="none" xmlns="http://www.w3.org/2000/svg">
<path d="M3.97474 0.527045C3.97474 0.527045 3.73994 0 3.38135 0C3.02845 0 2.84489 0.156136 2.72251 0.263864C2.60014 0.371591 0.552467 1.98409 0.552467 1.98409C0.552467 1.98409 -0.0430511 2.4825 0.00248431 3.42C0.0409048 4.3575 0.232296 5.69182 1.22554 7.55045C2.21166 9.405 4.67982 12.2386 6.23941 13.2348C6.23941 13.2348 7.68445 14.297 9.02916 14.7286C9.41977 14.8466 10.201 15 10.3831 15C10.5681 15 10.8947 15 11.2696 14.7375C11.651 14.4723 13.7905 12.8236 13.7905 12.8236C13.7905 12.8236 14.3141 12.3702 13.7058 11.8432C13.0946 11.3161 11.2391 10.1441 10.842 9.83591C10.4443 9.52295 9.87797 9.66068 9.63322 9.87273C9.38918 10.0861 8.95303 10.4373 8.89967 10.4816C8.81999 10.5402 8.60156 10.7305 8.3568 10.6357C8.04517 10.5177 6.76734 9.85295 5.5827 8.29977C4.40519 6.74795 4.2757 6.24068 4.09996 5.6925C4.07015 5.61146 4.06974 5.52316 4.09879 5.44187C4.12784 5.36058 4.18466 5.29106 4.26004 5.24455C4.43649 5.12727 5.08608 4.60841 5.08608 4.60841C5.08608 4.60841 5.50658 4.21091 5.33084 3.7425C5.1551 3.27409 3.97474 0.527045 3.97474 0.527045Z" fill="#6B6B6B"/>
</svg>
