<svg width="16" height="14" viewBox="0 0 16 14" fill="none" xmlns="http://www.w3.org/2000/svg">
<path d="M3.30334 5.27481H0.0441091C0.0441091 0.626285 4.1637 0 8.10805 0C12.0529 0 16 0.626085 16 5.27481H12.7158C12.487 2.27349 10.8006 2.44193 8.10805 2.41592C5.4369 2.38891 3.55533 2.21594 3.30334 5.27481ZM14.7104 10.4658H14.7169V14H1.3183V10.4658C1.3183 10.4658 4.00239 6.06074 4.76717 5.26241V4.38687C4.76717 4.38566 4.76743 4.38467 4.76743 4.38346V4.06425H6.492V5.10217H9.60949V4.06425H11.3341V5.30329C12.1457 6.18797 14.5719 10 14.7104 10.4658ZM6.65981 11.7845C6.65981 11.5107 6.43894 11.2886 6.16652 11.2886C5.89411 11.2886 5.67323 11.5107 5.67323 11.7845C5.67323 12.0584 5.89411 12.2804 6.16652 12.2804C6.439 12.2804 6.65981 12.0584 6.65981 11.7845ZM6.65981 9.66561C6.65981 9.39175 6.43894 9.16969 6.16652 9.16969C5.89411 9.16969 5.67323 9.39175 5.67323 9.66561C5.67323 9.93948 5.89411 10.1615 6.16652 10.1615C6.439 10.1615 6.65981 9.93948 6.65981 9.66561ZM6.65981 7.5467C6.65981 7.27283 6.43894 7.05078 6.16652 7.05078C5.89411 7.05078 5.67323 7.27283 5.67323 7.5467C5.67323 7.82057 5.89411 8.04262 6.16652 8.04262C6.439 8.04262 6.65981 7.82057 6.65981 7.5467ZM8.49847 11.7845C8.49847 11.5107 8.27759 11.2886 8.00517 11.2886C7.73276 11.2886 7.51188 11.5107 7.51188 11.7845C7.51188 12.0584 7.73276 12.2804 8.00517 12.2804C8.27759 12.2804 8.49847 12.0584 8.49847 11.7845ZM8.49847 9.66561C8.49847 9.39175 8.27759 9.16969 8.00517 9.16969C7.73276 9.16969 7.51188 9.39175 7.51188 9.66561C7.51188 9.93948 7.73276 10.1615 8.00517 10.1615C8.27759 10.1615 8.49847 9.93948 8.49847 9.66561ZM8.49847 7.5467C8.49847 7.27283 8.27759 7.05078 8.00517 7.05078C7.73276 7.05078 7.51188 7.27283 7.51188 7.5467C7.51188 7.82057 7.73276 8.04262 8.00517 8.04262C8.27759 8.04262 8.49847 7.82057 8.49847 7.5467ZM10.3371 11.7845C10.3371 11.5107 10.1162 11.2886 9.84376 11.2886C9.57135 11.2886 9.35047 11.5107 9.35047 11.7845C9.35047 12.0584 9.57135 12.2804 9.84376 12.2804C10.1162 12.2804 10.3371 12.0584 10.3371 11.7845ZM10.3371 9.66561C10.3371 9.39175 10.1162 9.16969 9.84376 9.16969C9.57135 9.16969 9.35047 9.39175 9.35047 9.66561C9.35047 9.93948 9.57135 10.1615 9.84376 10.1615C10.1162 10.1615 10.3371 9.93948 10.3371 9.66561ZM10.3371 7.5467C10.3371 7.27283 10.1162 7.05078 9.84376 7.05078C9.57135 7.05078 9.35047 7.27283 9.35047 7.5467C9.35047 7.82057 9.57135 8.04262 9.84376 8.04262C10.1162 8.04262 10.3371 7.82057 10.3371 7.5467ZM3.31647 5.66464H3.31475H0.0250725H0V6.93162H3.31647V5.66464ZM12.6689 5.66464V6.93162H15.9854V5.97225V5.66464H12.7054H12.6689Z" fill="#6B6B6B"/>
</svg>
