<svg width="19" height="13" viewBox="0 0 19 13" fill="none" xmlns="http://www.w3.org/2000/svg">
<path fill-rule="evenodd" clip-rule="evenodd" d="M7.41782 8.90138V3.69041C9.26772 4.56088 10.7005 5.40177 12.395 6.30836C10.9974 7.08345 9.26772 7.95312 7.41782 8.90138ZM17.7273 1.09876C17.4082 0.678342 16.8644 0.351082 16.2853 0.242736C14.5834 -0.0804523 3.96591 -0.0813716 2.26492 0.242736C1.8006 0.32978 1.38713 0.540179 1.03195 0.867072C-0.464621 2.25612 0.00433287 9.70514 0.365065 10.9118C0.516756 11.434 0.712854 11.8107 0.959816 12.058C1.278 12.3849 1.71364 12.6099 2.21404 12.7109C3.61534 13.0007 10.8346 13.1628 16.2557 12.7544C16.7552 12.6674 17.1973 12.435 17.546 12.0942C18.9298 10.7107 18.8354 2.8434 17.7273 1.09876Z" fill="white"/>
</svg>
