<svg width="65" height="17" viewBox="0 0 65 17" fill="none" xmlns="http://www.w3.org/2000/svg">
<path d="M0 1.32284H3.07866L5.06174 7.3802H5.25352L7.14477 1.32284H10.2498L6.69234 10.189V16.4787H3.63652V10.4711L0 1.32284ZM10.5732 7.84972C10.5732 6.96043 10.9413 6.25366 11.678 5.72603C12.4138 5.19846 13.4028 4.93468 14.6455 4.93468C15.7771 4.93468 16.7039 5.21342 17.4259 5.76918C18.1497 6.32494 18.5106 7.04002 18.5106 7.91608V13.8474C18.5106 14.8295 18.1555 15.601 17.4476 16.1602C16.739 16.7192 15.7628 16.9996 14.5214 16.9996C13.3251 16.9996 12.3682 16.7109 11.6499 16.1336C10.9325 15.5563 10.5732 14.7798 10.5732 13.8025V7.84972ZM13.3874 14.0182C13.3874 14.3351 13.4839 14.5773 13.6791 14.7515C13.8738 14.9241 14.1517 15.0087 14.5131 15.0087C14.8837 15.0087 15.1783 14.9224 15.396 14.7466C15.6141 14.5691 15.7237 14.3268 15.7237 14.0182V7.76341C15.7237 7.51286 15.6117 7.31045 15.3894 7.15619C15.1671 7.00185 14.875 6.92385 14.5131 6.92385C14.1801 6.92385 13.9084 7.00185 13.7004 7.15619C13.4915 7.31045 13.3874 7.51286 13.3874 7.76341V14.0182ZM28.5122 5.11887V16.6031H25.7736V15.3356C25.268 15.8035 24.7433 16.1584 24.1966 16.4041C23.651 16.6463 23.1203 16.769 22.6071 16.769C21.9737 16.769 21.4957 16.5982 21.1747 16.2564C20.8538 15.9145 20.6934 15.4019 20.6934 14.7184V5.11887H23.4328V13.922C23.4328 14.1958 23.4905 14.3915 23.6049 14.5143C23.7204 14.6354 23.9059 14.6968 24.1624 14.6968C24.3646 14.6968 24.6195 14.6155 24.9261 14.4546C25.2345 14.2937 25.5169 14.0879 25.7735 13.8374V5.11887H28.5122ZM60.1785 7.14304C60.044 6.99535 59.8299 6.91909 59.5358 6.91909C59.2283 6.91909 59.0077 6.99535 58.874 7.14304C58.7403 7.29232 58.6735 7.53954 58.6735 7.88465V8.59973H60.3798V7.88465C60.3798 7.53954 60.313 7.29232 60.1785 7.14304ZM52.0848 12.5268C52.2318 12.5865 52.3873 12.6147 52.5511 12.6147C52.7884 12.6147 52.9606 12.5583 53.0726 12.4422C53.1844 12.3277 53.2396 12.1369 53.2396 11.8748V7.74029C53.2396 7.46161 53.1711 7.25089 53.0341 7.10653C52.8962 6.96217 52.6949 6.89082 52.4341 6.89082C52.2962 6.89082 52.16 6.91736 52.0254 6.97048C51.8909 7.02521 51.758 7.10986 51.6268 7.22263V12.2364C51.7839 12.3725 51.9368 12.4687 52.0848 12.5268ZM64.7883 3.77344C64.7883 1.78254 62.7281 0.168189 60.1893 0.168189C56.5675 0.0470364 52.8612 -0.00602708 49.0801 0.00055585C45.3002 -0.00609358 41.5939 0.0469699 37.9707 0.168189C35.4332 0.168189 33.3732 1.78247 33.3732 3.77344C33.2207 5.34789 33.1547 6.924 33.1605 8.50019C33.1547 10.0763 33.2207 11.6524 33.3732 13.2286C33.3732 15.2178 35.4332 16.832 37.9707 16.832C41.5939 16.9515 45.3002 17.0047 49.0801 16.9997C52.8612 17.0047 56.5675 16.9515 60.1893 16.832C62.7281 16.832 64.7883 15.2178 64.7883 13.2286C64.9403 11.6524 65.0062 10.0763 64.9995 8.50019C65.0062 6.924 64.9403 5.34789 64.7883 3.77344ZM40.0536 13.806V13.9255H37.8784V13.806V4.37568H35.6279V4.25792V2.75482V2.63705H42.3046V2.75482V4.25792V4.37568H40.0536V13.806ZM47.7918 5.68469V13.806V13.9255H45.8605V13.806V13.0146C45.5036 13.3513 45.1338 13.6052 44.749 13.7811C44.3634 13.9552 43.9898 14.0432 43.6271 14.0432C43.1809 14.0432 42.8445 13.9204 42.618 13.6765C42.3911 13.431 42.2778 13.0627 42.2778 12.5716V12.4521V5.68469V5.56686H44.21V5.68469V11.883C44.21 12.0772 44.2501 12.2198 44.3307 12.3061C44.4122 12.394 44.5434 12.4372 44.7243 12.4372C44.8668 12.4372 45.0461 12.3791 45.2634 12.2646C45.4798 12.1485 45.6787 12.0008 45.8605 11.8216V5.68469V5.56686H47.7918V5.68469ZM55.2278 7.6474V12.0987V12.2182C55.2278 12.8039 55.0766 13.2518 54.7741 13.5637C54.4715 13.8723 54.0336 14.0283 53.462 14.0283C53.0842 14.0283 52.7484 13.9685 52.4525 13.8491C52.1558 13.728 51.8809 13.5421 51.6269 13.2916V13.8059V13.9254H49.6772V13.8059V2.75475V2.63699H51.6269V2.75475V6.2322C51.8876 5.97999 52.1634 5.78921 52.4559 5.65981C52.7492 5.52875 53.046 5.46239 53.345 5.46239C53.9551 5.46239 54.4231 5.63827 54.7448 5.99003C55.0665 6.34171 55.2278 6.85439 55.2278 7.52804V7.6474ZM62.368 7.89961V9.87895V9.99844H58.6735V11.4334C58.6735 11.8665 58.7369 12.1668 58.864 12.3344C58.9918 12.502 59.2091 12.5866 59.5166 12.5866C59.8367 12.5866 60.0615 12.5152 60.1893 12.3725C60.3163 12.2315 60.3798 11.9179 60.3798 11.4334V10.9806V10.8611H62.368V10.9806V11.4799V11.5993C62.368 12.4438 62.1265 13.0793 61.6419 13.5073C61.1579 13.9354 60.435 14.1477 59.4732 14.1477C58.6082 14.1477 57.9281 13.9205 57.4307 13.4676C56.9344 13.0146 56.6854 12.3908 56.6854 11.5993V11.4799V7.89961V7.78185C56.6854 7.06677 56.9585 6.48441 57.5035 6.03312C58.0492 5.58348 58.7554 5.35787 59.6195 5.35787C60.5036 5.35787 61.1822 5.56693 61.657 5.98331C62.13 6.39983 62.368 7.00041 62.368 7.78185V7.89961H62.368Z" fill="white"/>
</svg>
