<svg width="37" height="37" viewBox="0 0 37 37" fill="none" xmlns="http://www.w3.org/2000/svg">
<circle cx="18.5" cy="18.5" r="18.5" fill="#E14F4F"/>
<path fill-rule="evenodd" clip-rule="evenodd" d="M17.4178 20.9014V15.6904C19.2677 16.5609 20.7005 17.4018 22.395 18.3084C20.9974 19.0834 19.2677 19.9531 17.4178 20.9014ZM27.7273 13.0988C27.4082 12.6783 26.8644 12.3511 26.2853 12.2427C24.5834 11.9195 13.9659 11.9186 12.2649 12.2427C11.8006 12.3298 11.3871 12.5402 11.0319 12.8671C9.53538 14.2561 10.0043 21.7051 10.3651 22.9118C10.5168 23.434 10.7129 23.8107 10.9598 24.058C11.278 24.3849 11.7136 24.6099 12.214 24.7109C13.6153 25.0007 20.8346 25.1628 26.2557 24.7544C26.7552 24.6674 27.1973 24.435 27.546 24.0942C28.9298 22.7107 28.8354 14.8434 27.7273 13.0988Z" fill="white"/>
</svg>
